HIERARCHY
ROOT Hips
{
 OFFSET 0.000000 0.000000 0.000000
 CHANNELS 6 Xposition Yposition Zposition Yrotation Xrotation Zrotation
 JOINT Chest
 {
  OFFSET 0.000000 9.585900 0.002600
  CHANNELS 3 Yrotation Xrotation Zrotation
  JOINT Chest2
  {
   OFFSET 0.000000 9.601200 -0.005300
   CHANNELS 3 Yrotation Xrotation Zrotation
   JOINT Chest3
   {
    OFFSET 0.000000 9.561800 0.000000
    CHANNELS 3 Yrotation Xrotation Zrotation
    JOINT Chest4
    {
     OFFSET 0.000000 9.552100 0.000000
     CHANNELS 3 Yrotation Xrotation Zrotation
     JOINT Neck
     {
      OFFSET 0.000000 14.453000 0.000000
      CHANNELS 3 Yrotation Xrotation Zrotation
      JOINT Head
      {
       OFFSET 0.000000 8.936500 -0.011300
       CHANNELS 3 Yrotation Xrotation Zrotation
       End Site
       {
        OFFSET 0.000000 17.073600 -0.006000
       }
      }
     }
     JOINT RightCollar
     {
      OFFSET -2.921100 9.558500 0.000000
      CHANNELS 3 Yrotation Xrotation Zrotation
      JOINT RightShoulder
      {
       OFFSET -13.519700 0.000000 0.000000
       CHANNELS 3 Yrotation Xrotation Zrotation
       JOINT RightElbow
       {
        OFFSET 0.000000 -29.696600 0.000000
        CHANNELS 3 Yrotation Xrotation Zrotation
        JOINT RightWrist
        {
         OFFSET 0.000000 -24.004700 0.000000
         CHANNELS 3 Yrotation Xrotation Zrotation
         End Site
         {
          OFFSET 0.000000 -17.728500 0.000000
         }
        }
       }
      }
     }
     JOINT LeftCollar
     {
      OFFSET 2.921100 9.558500 0.000000
      CHANNELS 3 Yrotation Xrotation Zrotation
      JOINT LeftShoulder
      {
       OFFSET 13.519700 0.000000 0.000000
       CHANNELS 3 Yrotation Xrotation Zrotation
       JOINT LeftElbow
       {
        OFFSET 0.000000 -29.696600 0.000000
        CHANNELS 3 Yrotation Xrotation Zrotation
        JOINT LeftWrist
        {
         OFFSET 0.000000 -24.004700 0.000000
         CHANNELS 3 Yrotation Xrotation Zrotation
         End Site
         {
          OFFSET 0.000000 -17.728500 0.000000
         }
        }
       }
      }
     }
    }
   }
  }
 }
 JOINT RightHip
 {
  OFFSET -7.771700 -0.012900 -0.001300
  CHANNELS 3 Yrotation Xrotation Zrotation
  JOINT RightKnee
  {
   OFFSET 0.000000 -40.869800 0.001200
   CHANNELS 3 Yrotation Xrotation Zrotation
   JOINT RightAnkle
   {
    OFFSET 0.000000 -39.717900 0.002100
    CHANNELS 3 Yrotation Xrotation Zrotation
    JOINT RightToe
    {
     OFFSET 0.000000 -4.965400 11.033500
     CHANNELS 3 Yrotation Xrotation Zrotation
     End Site
     {
      OFFSET 0.000000 -1.423100 5.872300
     }
    }
   }
  }
 }
 JOINT LeftHip
 {
  OFFSET 7.771700 -0.012900 -0.001300
  CHANNELS 3 Yrotation Xrotation Zrotation
  JOINT LeftKnee
  {
   OFFSET 0.000000 -40.869800 0.001200
   CHANNELS 3 Yrotation Xrotation Zrotation
   JOINT LeftAnkle
   {
    OFFSET 0.000000 -39.717900 0.002100
    CHANNELS 3 Yrotation Xrotation Zrotation
    JOINT LeftToe
    {
     OFFSET 0.000000 -4.965400 11.033500
     CHANNELS 3 Yrotation Xrotation Zrotation
     End Site
     {
      OFFSET 0.000000 -1.423100 5.872300
     }
    }
   }
  }
 }
}
MOTION
Frames: 8
Frame Time: 0.008333
-52.728143 50.886752 46.018464 -179.532392 -30.964425 -9.362949 0.251059 12.373813 3.545038 0.035718 7.150782 2.012848 0.094115 8.828097 2.466932 0.037334 7.163893 2.058039 3.457187 19.182439 -0.533492 3.806163 -5.388761 -1.358508 2.616918 3.905371 -1.417688 -18.972701 -10.876898 5.214587 7.427366 -66.924756 5.308743 9.805643 -11.476145 -15.180513 -7.293829 2.712100 -3.835792 3.928012 -2.418694 -0.531071 -74.407996 -65.543626 80.507002 12.102413 -16.925376 -4.045386 -11.242872 -34.026532 1.603863 15.205321 84.372096 11.348113 0.613958 -16.297698 5.255399 0.000222 0.259924 -0.182037 -12.975890 -48.900870 12.777891 173.363230 77.427377 168.876080 -2.152674 -19.416365 2.261445 -0.006243 -0.003387 0.008229
-52.708768 50.889734 46.036784 -179.549344 -30.897875 -9.358463 0.250849 12.420701 3.577228 0.036281 7.116985 2.022602 0.088997 8.858342 2.516405 0.037560 7.085297 1.999567 3.499491 19.246880 -0.516870 3.845551 -5.347188 -1.386302 2.616372 3.949888 -1.393473 -18.986509 -10.906127 5.194833 7.397720 -66.985631 5.347443 9.711616 -11.534261 -15.140588 -7.318937 2.756019 -3.818261 3.925261 -2.428578 -0.491603 -74.583685 -65.519483 80.568448 12.087403 -17.016056 -4.071172 -11.519707 -34.115532 1.703695 14.945404 84.465987 11.079929 0.762931 -16.382590 5.067805 -0.022255 0.248507 -0.160216 -12.987668 -48.966836 12.839850 173.359695 77.439837 168.866966 -2.178405 -19.404705 2.282726 -0.018726 0.002827 -0.000880
-52.692038 50.894902 46.048719 -179.558886 -30.843738 -9.353193 0.252302 12.443728 3.597734 0.035951 7.100112 2.032071 0.084799 8.874626 2.545765 0.035167 7.085092 2.016674 3.500142 19.222401 -0.576782 3.909387 -5.257290 -1.384298 2.612268 3.948310 -1.415194 -18.999052 -10.934001 5.172904 7.154042 -67.058372 5.569200 9.735035 -11.567385 -15.107412 -7.332317 2.708300 -3.863609 3.912808 -2.406666 -0.429296 -74.732686 -65.504280 80.608265 12.075402 -17.098183 -4.084440 -11.722985 -34.209087 1.793193 15.023013 84.558046 11.191234 0.799851 -16.403171 4.957633 0.034577 0.218078 -0.214465 -12.996889 -49.017127 12.888562 173.365528 77.450742 168.863922 -2.202181 -19.395018 2.305042 -0.027222 0.006363 -0.009357
-52.677085 50.902503 46.052814 -179.565123 -30.810587 -9.353226 0.256625 12.439040 3.610028 0.037070 7.127624 2.052849 0.080390 8.875252 2.561983 0.032213 7.100578 2.045110 3.543327 19.272715 -0.585257 3.936428 -5.232294 -1.408980 2.605528 3.947608 -1.431181 -19.023146 -10.905680 5.159545 7.056594 -67.177124 5.667235 9.766697 -11.589503 -15.091637 -7.365486 2.714240 -3.879167 3.915022 -2.442777 -0.403074 -74.854890 -65.482541 80.633345 12.067314 -17.169286 -4.083214 -11.864085 -34.288158 1.877038 15.260275 84.644019 11.489651 0.814598 -16.379296 4.873474 0.030206 0.124111 -0.247497 -13.011001 -49.044107 12.946272 173.403797 77.455196 168.883683 -2.230308 -19.379185 2.330030 -0.032702 -0.002746 -0.013806
-52.663969 50.907157 46.056778 -179.561419 -30.741289 -9.362986 0.248934 12.398921 3.626907 0.035481 7.127014 2.058937 0.078295 8.903163 2.590683 0.027997 7.087262 2.044734 3.598077 19.353322 -0.553912 3.964837 -5.204340 -1.428589 2.599418 3.973133 -1.416572 -19.040196 -10.809595 5.153956 7.065903 -67.367567 5.648705 9.801537 -11.581505 -15.060082 -7.395804 2.751192 -3.873337 3.916033 -2.484725 -0.377502 -74.946913 -65.456329 80.636363 12.058791 -17.227388 -4.068668 -11.988345 -34.393829 1.969900 15.482492 84.713691 11.795412 0.839205 -16.369341 4.742473 0.021314 0.068539 -0.230481 -13.070981 -49.105021 13.034186 173.448534 77.453486 168.898603 -2.256793 -19.371176 2.351765 -0.041680 -0.006039 -0.014726
-52.651583 50.911159 46.056000 -179.547422 -30.668106 -9.390295 0.242372 12.380174 3.664897 0.027391 7.101310 2.057830 0.074706 8.903978 2.597647 0.026096 7.073592 2.037976 3.647252 19.437102 -0.502963 4.004274 -5.151091 -1.429773 2.591653 4.023979 -1.376678 -19.039136 -10.817848 5.133870 7.115728 -67.436853 5.607552 9.797550 -11.608837 -15.093357 -7.413396 2.785105 -3.862476 3.907814 -2.498935 -0.335713 -74.999569 -65.441163 80.605529 12.045873 -17.272837 -4.047906 -12.116408 -34.488477 2.070001 15.657831 84.769339 12.066857 0.867102 -16.357236 4.611672 0.010831 0.028120 -0.211055 -13.205524 -49.164494 13.198086 173.627198 77.441648 169.005814 -2.298221 -19.356157 2.390840 -0.035649 -0.021049 -0.016011
-52.644240 50.915414 46.046774 -179.543134 -30.617772 -9.398786 0.243539 12.384603 3.684921 0.022364 7.101979 2.070421 0.068721 8.876897 2.593597 0.022501 7.101865 2.070561 3.683085 19.479384 -0.494207 4.039030 -5.096208 -1.424206 2.582934 4.033498 -1.383699 -19.051176 -10.787881 5.130806 7.215196 -67.532510 5.529022 9.794643 -11.586908 -15.174631 -7.429485 2.787715 -3.877373 3.900682 -2.533210 -0.308593 -75.008786 -65.450292 80.532172 12.024422 -17.301930 -4.018580 -12.224732 -34.554070 2.128417 15.900987 84.821779 12.397304 0.943356 -16.352469 4.500064 0.011745 -0.008896 -0.214211 -13.245983 -49.203393 13.252872 173.610513 77.434835 168.971547 -2.306644 -19.358781 2.409860 -0.053443 -0.023955 -0.025994
-52.638546 50.917008 46.034814 -179.532789 -30.550691 -9.415594 0.249024 12.419195 3.719077 0.016876 7.110766 2.096161 0.056904 8.818863 2.588367 0.020377 7.145895 2.127774 3.696049 19.481381 -0.531761 4.068252 -5.040975 -1.413094 2.564529 4.002788 -1.442068 -19.064429 -10.759096 5.138067 7.193481 -67.578941 5.545074 9.807056 -11.592623 -15.204922 -7.455167 2.761874 -3.920105 3.902082 -2.593401 -0.309624 -74.980176 -65.472716 80.414889 11.994701 -17.305474 -3.981628 -12.359781 -34.617641 2.192010 15.990691 84.858829 12.570358 1.011138 -16.359912 4.384066 -0.018944 -0.022027 -0.161262 -13.343717 -49.255422 13.365042 173.693184 77.415466 169.000201 -2.343570 -19.365884 2.443520 -0.052212 -0.031363 -0.028152
